<svg version="1.1" xmlns="http://www.w3.org/2000/svg" viewBox="0 0 221.85927448535847 196.72265625" width="443.71854897071694" height="393.4453125">
  <!-- svg-source:excalidraw -->
  
  <defs>
    <style class="style-fonts">
      @font-face {
        font-family: "Virgil";
        src: url("https://excalidraw.com/Virgil.woff2");
      }
      @font-face {
        font-family: "Cascadia";
        src: url("https://excalidraw.com/Cascadia.woff2");
      }
      @font-face {
        font-family: "Assistant";
        src: url("https://excalidraw.com/Assistant-Regular.woff2");
      }
    </style>
    
  </defs>
  <g stroke-linecap="round" transform="translate(10.173032407407277 10) rotate(0 100.8431210389756 88.361328125)"><path d="M105.86 0.45 C118.1 -0.4, 130.92 4.05, 142.42 8.75 C153.91 13.45, 165.97 20.46, 174.81 28.64 C183.65 36.82, 191.03 47.28, 195.47 57.83 C199.91 68.38, 202.04 80.72, 201.45 91.93 C200.87 103.15, 197.28 114.97, 191.98 125.12 C186.67 135.28, 179.09 145.28, 169.62 152.85 C160.15 160.41, 147.42 166.64, 135.18 170.54 C122.94 174.43, 108.85 176.5, 96.18 176.21 C83.51 175.92, 70.89 173.46, 59.17 168.79 C47.45 164.13, 34.84 156.49, 25.88 148.22 C16.92 139.94, 9.63 129.77, 5.39 119.13 C1.16 108.49, -0.32 95.86, 0.48 84.39 C1.27 72.92, 4.8 60.4, 10.17 50.3 C15.54 40.2, 23.26 31.25, 32.7 23.79 C42.13 16.32, 53.55 9.53, 66.77 5.52 C79.99 1.5, 103.53 -0.09, 112.01 -0.32 C120.48 -0.56, 117.73 2.58, 117.62 4.12 M54.92 9.52 C65.4 3.23, 80.02 0.91, 92.82 -0.09 C105.62 -1.09, 119.79 0.36, 131.74 3.53 C143.69 6.7, 154.68 11.59, 164.52 18.92 C174.37 26.25, 184.45 37.23, 190.81 47.48 C197.18 57.74, 201.64 69.52, 202.73 80.46 C203.82 91.41, 201.17 102.52, 197.37 113.15 C193.58 123.79, 188.09 135.41, 179.99 144.27 C171.89 153.13, 160.54 160.89, 148.77 166.33 C137 171.78, 122.31 176.01, 109.35 176.94 C96.38 177.87, 83.1 175.39, 70.97 171.92 C58.84 168.44, 46.61 163.11, 36.56 156.09 C26.51 149.08, 16.5 139.8, 10.69 129.82 C4.88 119.85, 2.97 107.51, 1.69 96.23 C0.41 84.95, -0.51 72.69, 3 62.14 C6.52 51.59, 14.3 41.56, 22.79 32.93 C31.28 24.3, 48.47 14.03, 53.96 10.34 C59.45 6.65, 55.25 9.6, 55.74 10.77" stroke="none" stroke-width="0" fill="#e03131"></path><path d="M68.01 5.25 C79.01 0.44, 94.22 -1.37, 107.08 -0.61 C119.95 0.16, 133.49 4.67, 145.19 9.84 C156.88 15.01, 168.87 22.21, 177.26 30.39 C185.65 38.57, 191.51 48.35, 195.53 58.93 C199.55 69.51, 202.16 82.57, 201.36 93.88 C200.55 105.2, 196.37 116.6, 190.7 126.82 C185.03 137.04, 176.83 147.83, 167.31 155.2 C157.8 162.58, 145.63 167.67, 133.59 171.08 C121.54 174.49, 107.88 176.24, 95.05 175.67 C82.22 175.11, 68.32 172.41, 56.61 167.7 C44.9 162.99, 33.25 155.98, 24.78 147.43 C16.31 138.88, 9.92 127.16, 5.79 116.41 C1.65 105.65, -0.79 94.11, -0.04 82.9 C0.72 71.69, 4.73 59.22, 10.33 49.16 C15.92 39.1, 22.48 30.28, 33.53 22.55 C44.57 14.82, 68.23 5.91, 76.6 2.78 C84.96 -0.34, 83.56 2.31, 83.71 3.81 M64.36 5.93 C75.39 0.85, 90.78 0.47, 103.56 0.71 C116.35 0.95, 129.31 2.93, 141.08 7.38 C152.84 11.82, 165 19.41, 174.14 27.38 C183.29 35.34, 191.26 44.86, 195.97 55.18 C200.67 65.5, 203 78.06, 202.37 89.29 C201.74 100.53, 197.53 112.36, 192.21 122.58 C186.88 132.79, 179.32 142.52, 170.41 150.58 C161.49 158.64, 150.78 166.6, 138.72 170.93 C126.66 175.27, 111.24 176.77, 98.07 176.6 C84.9 176.43, 71.18 174.46, 59.71 169.9 C48.24 165.34, 38.25 157.63, 29.23 149.24 C20.21 140.84, 10.26 129.85, 5.59 119.54 C0.92 109.24, 0.74 98.49, 1.23 87.4 C1.72 76.3, 3.81 63.22, 8.52 52.95 C13.24 42.67, 20.27 33.31, 29.51 25.74 C38.76 18.16, 57.93 10.64, 64.01 7.49 C70.1 4.35, 65.54 5.66, 66.03 6.85" stroke="#e03131" stroke-width="2" fill="none"></path></g><g transform="translate(10 94.71252893518522) rotate(0 97.09273726851848 -3.301504629629619)" stroke="none"><path fill="#2f9e44" d="M 1.12,-2.22 Q 1.12,-2.22 2.41,-1.57 3.69,-0.91 4.93,-0.31 6.17,0.29 7.40,0.89 8.63,1.48 9.83,2.03 11.03,2.59 12.19,3.12 13.34,3.65 14.50,4.25 15.66,4.85 16.77,5.45 17.88,6.06 18.91,6.62 19.93,7.17 20.88,7.69 21.83,8.20 23.58,9.04 25.34,9.88 26.78,10.38 28.22,10.88 29.46,11.20 30.70,11.51 31.87,11.77 33.04,12.02 34.25,12.31 35.47,12.61 36.68,12.89 37.90,13.17 39.22,13.37 40.55,13.58 41.83,13.77 43.11,13.96 44.52,14.26 45.94,14.55 47.00,14.96 48.06,15.37 49.30,15.78 50.53,16.19 51.80,16.49 53.07,16.79 54.21,16.88 55.35,16.98 56.73,17.00 58.11,17.02 59.55,17.05 61.00,17.09 62.36,17.22 63.73,17.36 65.00,17.49 66.28,17.63 67.49,17.77 68.71,17.92 69.81,18.10 70.91,18.28 72.00,18.53 73.08,18.77 74.17,18.95 75.25,19.14 76.46,19.32 77.67,19.50 78.75,19.63 79.82,19.77 80.90,19.87 81.98,19.97 83.25,20.09 84.52,20.22 85.82,20.35 87.12,20.48 88.27,20.59 89.42,20.69 90.85,20.70 92.28,20.72 93.50,20.71 94.73,20.69 96.10,20.53 97.47,20.37 98.72,20.47 99.96,20.58 101.39,20.87 102.81,21.16 103.92,21.30 105.02,21.43 106.40,21.48 107.79,21.53 109.32,21.54 110.84,21.54 112.37,21.54 113.89,21.54 115.28,21.54 116.67,21.54 118.31,21.54 119.95,21.55 121.20,21.50 122.46,21.44 123.68,21.27 124.90,21.09 126.35,20.85 127.80,20.61 129.22,20.42 130.64,20.23 131.79,20.08 132.94,19.94 134.46,19.70 135.98,19.46 137.08,19.22 138.17,18.98 139.32,18.71 140.46,18.44 141.50,18.13 142.54,17.83 143.85,17.33 145.15,16.83 146.51,16.32 147.87,15.81 148.89,15.45 149.92,15.09 150.97,14.73 152.01,14.36 153.10,13.99 154.19,13.62 155.25,13.23 156.31,12.84 157.51,12.43 158.71,12.02 159.83,11.68 160.95,11.33 161.96,10.97 162.96,10.61 164.03,10.31 165.10,10.02 166.03,9.44 166.97,8.86 167.77,8.16 168.58,7.46 169.52,6.86 170.46,6.26 171.56,5.53 172.65,4.81 173.61,4.12 174.58,3.44 175.40,2.51 176.21,1.59 176.89,0.72 177.56,-0.14 178.20,-1.01 178.84,-1.87 179.59,-2.80 180.35,-3.73 181.31,-4.84 182.27,-5.94 183.09,-6.81 183.92,-7.67 184.78,-8.62 185.64,-9.57 186.37,-10.36 187.09,-11.16 187.75,-12.13 188.41,-13.11 188.78,-14.20 189.16,-15.30 189.46,-16.32 189.76,-17.35 189.93,-18.44 190.11,-19.54 190.20,-20.80 190.28,-22.07 190.29,-23.24 190.30,-24.41 189.95,-25.64 189.59,-26.87 189.33,-28.51 189.06,-30.14 188.89,-30.75 188.71,-31.36 188.74,-31.99 188.78,-32.62 189.01,-33.21 189.24,-33.80 189.64,-34.28 190.05,-34.76 190.59,-35.09 191.13,-35.42 191.74,-35.56 192.36,-35.70 192.99,-35.63 193.62,-35.57 194.19,-35.31 194.77,-35.04 195.23,-34.61 195.69,-34.18 195.99,-33.62 196.28,-33.07 196.39,-32.45 196.50,-31.82 196.40,-31.20 196.30,-30.57 196.00,-30.02 195.71,-29.46 195.26,-29.02 194.80,-28.58 194.23,-28.31 193.66,-28.05 193.03,-27.97 192.40,-27.90 191.78,-28.04 191.17,-28.17 190.62,-28.49 190.08,-28.81 189.67,-29.29 189.26,-29.77 189.02,-30.36 188.78,-30.94 188.75,-31.57 188.71,-32.20 188.88,-32.81 189.04,-33.42 189.39,-33.95 189.74,-34.47 190.25,-34.86 190.75,-35.24 191.34,-35.45 191.94,-35.65 192.57,-35.65 193.20,-35.66 193.80,-35.46 194.40,-35.26 194.91,-34.88 195.41,-34.50 195.77,-33.98 196.13,-33.46 196.13,-33.46 196.13,-33.46 196.66,-31.24 197.18,-29.01 197.53,-27.87 197.88,-26.72 197.97,-25.57 198.06,-24.41 198.05,-23.26 198.03,-22.11 197.93,-20.94 197.83,-19.77 197.74,-18.62 197.65,-17.47 197.40,-16.34 197.14,-15.21 196.81,-14.11 196.47,-13.02 196.14,-11.96 195.80,-10.91 195.14,-9.63 194.47,-8.36 193.79,-7.43 193.11,-6.51 192.18,-5.50 191.25,-4.49 190.37,-3.52 189.48,-2.55 188.74,-1.77 187.99,-0.99 187.05,0.09 186.12,1.18 185.36,2.09 184.61,3.00 183.85,4.00 183.09,5.00 182.41,5.88 181.73,6.77 180.73,7.84 179.74,8.91 178.84,9.60 177.94,10.29 176.83,11.03 175.72,11.77 174.58,12.44 173.43,13.12 172.44,13.93 171.44,14.75 170.47,15.38 169.50,16.01 168.53,16.45 167.56,16.89 166.06,17.30 164.56,17.71 163.31,18.10 162.06,18.49 160.97,18.85 159.87,19.20 158.78,19.60 157.68,20.00 156.57,20.39 155.46,20.79 154.38,21.16 153.31,21.53 152.29,21.89 151.27,22.24 149.88,22.74 148.49,23.24 147.13,23.73 145.78,24.23 144.62,24.60 143.46,24.98 142.18,25.32 140.89,25.67 139.71,25.93 138.52,26.19 137.28,26.44 136.03,26.69 134.92,26.84 133.82,26.98 132.68,27.12 131.54,27.26 130.28,27.44 129.02,27.62 127.56,27.89 126.10,28.17 124.56,28.41 123.02,28.65 121.48,28.75 119.95,28.85 118.80,28.85 117.64,28.86 116.25,28.86 114.86,28.85 113.36,28.85 111.86,28.85 110.31,28.85 108.76,28.85 107.68,28.85 106.61,28.84 104.98,28.74 103.35,28.64 101.92,28.39 100.49,28.15 99.19,27.79 97.89,27.43 96.61,27.65 95.33,27.87 94.24,27.85 93.15,27.84 91.64,27.81 90.13,27.78 88.87,27.71 87.61,27.63 86.36,27.51 85.12,27.38 83.84,27.26 82.55,27.13 81.34,27.02 80.13,26.90 78.99,26.76 77.84,26.62 76.62,26.45 75.40,26.28 74.09,26.07 72.78,25.86 71.19,25.50 69.60,25.14 68.15,24.89 66.69,24.63 65.48,24.49 64.27,24.34 63.00,24.20 61.73,24.06 60.61,23.96 59.49,23.86 58.01,23.85 56.53,23.84 54.90,23.77 53.26,23.70 51.68,23.41 50.11,23.12 48.52,22.67 46.93,22.21 45.25,21.54 43.57,20.86 42.21,20.56 40.85,20.25 39.42,20.01 37.98,19.76 36.50,19.43 35.01,19.09 33.81,18.73 32.61,18.36 31.47,18.02 30.33,17.67 29.04,17.27 27.74,16.86 26.19,16.29 24.65,15.72 22.85,14.84 21.05,13.97 20.10,13.43 19.15,12.90 18.23,12.35 17.31,11.80 16.32,11.22 15.33,10.63 14.28,10.03 13.23,9.43 12.18,8.85 11.13,8.28 10.01,7.72 8.89,7.16 7.66,6.58 6.43,5.99 5.19,5.38 3.95,4.77 2.70,4.15 1.44,3.52 0.15,2.87 -1.12,2.22 -1.37,2.06 -1.62,1.89 -1.83,1.67 -2.03,1.44 -2.17,1.18 -2.32,0.91 -2.39,0.62 -2.47,0.33 -2.47,0.03 -2.48,-0.26 -2.41,-0.55 -2.34,-0.85 -2.21,-1.12 -2.07,-1.38 -1.87,-1.61 -1.68,-1.84 -1.43,-2.01 -1.19,-2.19 -0.91,-2.30 -0.63,-2.41 -0.33,-2.45 -0.03,-2.49 0.26,-2.46 0.56,-2.43 0.84,-2.33 1.12,-2.22 1.12,-2.22 L 1.12,-2.22 Z"></path></g><g stroke-opacity="0.3" fill-opacity="0.3" transform="translate(147.52314814814792 20.11617476851859) rotate(0 -16.030092592592496 80.76605902777771)" stroke="none"><path fill="#1e1e1e" d="M 2.46,-4.34 Q 2.46,-4.34 3.86,-3.66 5.27,-2.97 7.21,-1.99 9.15,-1.00 11.49,-0.48 13.84,0.04 16.04,0.84 18.24,1.65 19.98,2.89 21.72,4.14 23.69,5.61 25.66,7.08 27.37,8.38 29.08,9.68 30.93,11.07 32.77,12.46 34.92,13.72 37.07,14.98 38.86,16.26 40.65,17.54 42.51,19.13 44.37,20.73 46.00,23.07 47.63,25.41 48.69,27.59 49.75,29.76 51.14,31.56 52.53,33.35 53.73,35.45 54.93,37.55 56.21,39.46 57.48,41.36 58.77,43.45 60.06,45.54 61.12,47.81 62.17,50.08 62.75,52.18 63.32,54.28 63.52,56.67 63.73,59.06 63.90,61.30 64.07,63.53 64.51,65.91 64.95,68.28 65.12,70.45 65.29,72.62 65.45,74.75 65.62,76.87 65.97,79.09 66.32,81.30 66.40,83.46 66.47,85.62 66.25,87.95 66.02,90.28 65.36,92.58 64.71,94.88 64.12,97.13 63.53,99.38 62.94,101.74 62.34,104.09 61.63,106.31 60.91,108.52 59.94,110.54 58.96,112.55 57.99,115.08 57.01,117.62 55.96,119.52 54.91,121.42 53.50,123.53 52.09,125.65 50.77,127.74 49.44,129.83 48.15,131.54 46.87,133.26 45.59,134.97 44.32,136.68 42.70,138.25 41.08,139.82 39.41,141.15 37.75,142.47 35.89,143.90 34.03,145.34 32.01,146.66 29.99,147.98 28.15,149.13 26.30,150.29 24.53,152.06 22.77,153.83 20.86,154.97 18.96,156.12 16.65,157.02 14.33,157.92 11.86,157.79 9.40,157.66 7.33,158.28 5.25,158.90 3.16,159.79 1.07,160.68 1.18,160.51 1.30,160.34 0.56,160.93 -0.16,161.53 -1.02,161.93 -1.88,162.34 -2.81,162.52 -3.74,162.71 -4.69,162.67 -5.64,162.63 -6.55,162.36 -7.46,162.09 -8.28,161.61 -9.10,161.14 -9.78,160.48 -10.47,159.82 -10.97,159.01 -11.47,158.21 -11.77,157.31 -12.07,156.40 -12.14,155.46 -12.21,154.51 -12.06,153.58 -11.90,152.64 -11.53,151.77 -11.15,150.90 -10.58,150.14 -10.00,149.38 -6.31,148.28 -2.61,147.18 -0.43,146.82 1.75,146.46 3.20,145.95 4.65,145.45 5.60,145.36 6.55,145.27 7.49,145.41 8.43,145.55 9.30,145.92 10.18,146.28 10.95,146.84 11.72,147.40 12.33,148.13 12.94,148.86 13.36,149.71 13.77,150.56 13.98,151.49 14.18,152.42 14.15,153.37 14.13,154.32 13.87,155.24 13.62,156.15 13.16,156.98 12.69,157.81 12.04,158.51 11.39,159.20 10.59,159.72 9.80,160.24 8.90,160.55 8.00,160.86 10.05,159.70 12.09,158.54 9.93,160.01 7.77,161.48 5.65,162.31 3.53,163.13 1.26,163.84 -1.00,164.55 -3.12,165.12 -5.24,165.69 -7.39,166.36 -9.55,167.03 -11.79,167.68 -14.03,168.34 -16.32,168.78 -18.60,169.23 -20.74,169.34 -22.89,169.44 -25.21,169.45 -27.53,169.45 -29.72,169.41 -31.91,169.37 -34.32,168.94 -36.73,168.52 -38.92,168.54 -41.10,168.56 -43.48,168.51 -45.86,168.46 -48.09,168.37 -50.32,168.29 -52.46,168.39 -54.59,168.48 -56.75,168.49 -58.91,168.49 -61.14,168.40 -63.37,168.32 -65.58,168.02 -67.78,167.72 -70.12,167.03 -72.45,166.34 -74.43,165.43 -76.40,164.52 -78.56,163.61 -80.71,162.69 -82.81,161.48 -84.91,160.27 -87.02,159.22 -89.13,158.17 -91.21,157.50 -93.29,156.82 -94.42,156.21 -95.55,155.59 -96.42,154.64 -97.29,153.70 -97.81,152.53 -98.34,151.35 -98.46,150.07 -98.58,148.79 -98.29,147.54 -98.00,146.29 -97.32,145.20 -96.64,144.11 -95.65,143.29 -94.66,142.47 -93.46,142.01 -92.26,141.55 -90.98,141.50 -89.69,141.45 -88.46,141.81 -87.23,142.17 -86.17,142.90 -85.12,143.64 -84.35,144.67 -83.59,145.70 -83.20,146.93 -82.80,148.15 -82.82,149.43 -82.84,150.72 -83.26,151.93 -83.69,153.14 -84.48,154.16 -85.27,155.17 -86.35,155.88 -87.42,156.58 -88.66,156.91 -89.90,157.24 -91.19,157.15 -92.47,157.06 -93.66,156.57 -94.84,156.08 -95.81,155.23 -96.78,154.39 -97.43,153.28 -98.08,152.17 -98.33,150.91 -98.59,149.65 -98.44,148.38 -98.28,147.10 -97.73,145.94 -97.17,144.78 -96.28,143.86 -95.38,142.94 -94.24,142.36 -93.09,141.77 -91.82,141.58 -90.55,141.39 -89.28,141.61 -88.02,141.84 -88.02,141.84 -88.02,141.84 -85.40,142.74 -82.79,143.65 -80.61,144.69 -78.43,145.73 -76.50,146.87 -74.57,148.01 -72.45,148.92 -70.33,149.83 -68.16,150.80 -65.99,151.76 -63.86,152.15 -61.73,152.53 -59.42,152.57 -57.10,152.61 -54.89,152.58 -52.69,152.55 -50.48,152.49 -48.27,152.44 -46.15,152.71 -44.04,152.98 -41.82,152.70 -39.60,152.41 -37.40,152.56 -35.19,152.71 -32.91,153.16 -30.62,153.61 -28.42,153.61 -26.23,153.61 -23.89,153.61 -21.55,153.60 -19.40,153.21 -17.24,152.82 -15.11,152.10 -12.98,151.38 -10.81,150.82 -8.65,150.26 -6.28,149.74 -3.92,149.22 -1.75,148.58 0.41,147.95 2.53,146.70 4.65,145.45 5.60,145.36 6.54,145.27 7.48,145.41 8.42,145.55 9.30,145.92 10.18,146.28 10.95,146.84 11.72,147.40 12.33,148.13 12.94,148.86 13.36,149.71 13.77,150.56 13.98,151.49 14.18,152.42 14.15,153.37 14.13,154.32 13.87,155.24 13.62,156.15 13.16,156.98 12.69,157.81 12.04,158.50 11.39,159.20 10.60,159.72 9.80,160.23 8.90,160.55 8.00,160.86 7.73,160.99 7.46,161.12 5.36,161.62 3.27,162.13 1.13,162.33 -1.00,162.54 -3.34,162.58 -5.67,162.62 -2.18,161.48 1.30,160.34 0.56,160.93 -0.16,161.53 -1.02,161.93 -1.88,162.34 -2.81,162.52 -3.74,162.71 -4.69,162.67 -5.64,162.63 -6.55,162.36 -7.46,162.09 -8.28,161.61 -9.10,161.14 -9.78,160.48 -10.47,159.82 -10.97,159.01 -11.47,158.21 -11.77,157.31 -12.07,156.40 -12.14,155.46 -12.21,154.51 -12.06,153.58 -11.90,152.64 -11.53,151.77 -11.15,150.90 -10.58,150.14 -10.00,149.38 -8.90,148.50 -7.80,147.62 -5.91,146.57 -4.03,145.52 -1.83,144.75 0.36,143.97 2.36,143.21 4.36,142.45 6.92,142.18 9.48,141.91 11.98,142.04 14.48,142.18 12.07,142.78 9.66,143.39 11.45,142.23 13.25,141.08 15.11,139.35 16.98,137.62 18.78,136.44 20.59,135.25 22.41,134.13 24.24,133.01 26.18,131.49 28.12,129.98 29.98,128.49 31.84,127.00 33.23,125.10 34.63,123.20 36.05,121.28 37.47,119.35 38.75,117.25 40.02,115.15 41.29,113.41 42.55,111.66 43.18,109.57 43.80,107.49 44.77,105.51 45.73,103.54 46.42,101.50 47.11,99.47 47.66,97.37 48.20,95.28 48.82,93.08 49.44,90.88 50.08,88.79 50.72,86.71 50.66,84.48 50.61,82.26 50.26,80.08 49.91,77.90 49.77,75.71 49.63,73.53 49.28,71.06 48.93,68.59 48.64,66.32 48.35,64.04 48.26,61.64 48.17,59.23 47.79,57.13 47.41,55.03 46.34,52.99 45.28,50.94 44.14,49.11 43.01,47.27 41.81,45.15 40.61,43.02 39.40,41.21 38.19,39.40 36.68,37.05 35.17,34.70 34.09,32.51 33.01,30.32 31.28,28.93 29.56,27.55 27.42,26.12 25.28,24.69 23.61,23.36 21.94,22.02 20.02,20.30 18.09,18.58 16.37,17.08 14.65,15.57 13.14,14.02 11.63,12.47 9.59,11.71 7.55,10.96 5.57,9.84 3.59,8.72 1.87,7.38 0.16,6.05 -1.14,5.20 -2.46,4.34 -2.94,3.99 -3.43,3.63 -3.81,3.17 -4.20,2.70 -4.46,2.16 -4.72,1.62 -4.85,1.03 -4.97,0.44 -4.95,-0.15 -4.93,-0.75 -4.77,-1.33 -4.61,-1.91 -4.31,-2.44 -4.02,-2.96 -3.60,-3.40 -3.19,-3.84 -2.68,-4.17 -2.18,-4.49 -1.61,-4.69 -1.04,-4.88 -0.44,-4.94 0.15,-4.99 0.75,-4.90 1.34,-4.81 1.90,-4.58 2.46,-4.34 2.46,-4.34 L 2.46,-4.34 Z"></path></g><g transform="translate(104.29108796296293 98.49291087962968) rotate(0 7.029079861111086 4.6780960648148096)" stroke="none"><path fill="#2f9e44" d="M 1.79,-1.82 Q 1.79,-1.82 2.50,-1.18 3.20,-0.54 3.94,0.29 4.67,1.13 5.54,2.15 6.41,3.16 7.04,4.10 7.66,5.05 8.37,6.00 9.09,6.94 9.61,7.99 10.14,9.03 7.94,8.72 5.74,8.40 5.86,7.12 5.97,5.83 6.47,4.83 6.96,3.82 7.45,2.86 7.94,1.90 8.57,0.79 9.20,-0.31 9.87,-1.23 10.55,-2.14 10.72,-0.92 10.89,0.29 11.41,1.22 11.93,2.15 10.84,2.46 9.74,2.77 8.67,2.71 7.59,2.65 6.43,2.67 5.26,2.68 4.14,2.64 3.02,2.60 1.87,2.59 0.72,2.57 -0.49,2.10 -1.72,1.63 -1.48,1.85 -1.23,2.07 -1.63,1.84 -2.03,1.61 -2.37,1.29 -2.70,0.98 -2.95,0.59 -3.20,0.20 -3.35,-0.23 -3.50,-0.67 -3.53,-1.13 -3.57,-1.59 -3.50,-2.05 -3.43,-2.50 -3.25,-2.93 -3.07,-3.35 -2.79,-3.72 -2.52,-4.09 -2.16,-4.39 -1.80,-4.68 -1.39,-4.88 -0.97,-5.08 -0.52,-5.17 -0.07,-5.27 0.39,-5.25 0.85,-5.23 1.29,-5.11 1.73,-4.98 2.89,-4.79 4.05,-4.59 5.26,-4.21 6.46,-3.83 7.69,-3.42 8.92,-3.02 9.96,-2.24 11.01,-1.46 11.66,-0.37 12.31,0.72 12.60,1.90 12.90,3.09 12.30,4.81 11.71,6.53 10.45,7.15 9.19,7.77 10.23,7.15 11.27,6.54 10.53,7.37 9.78,8.20 8.69,8.56 7.61,8.91 6.32,8.80 5.02,8.68 3.99,8.14 2.95,7.60 1.92,6.82 0.90,6.03 0.07,5.16 -0.74,4.28 -0.93,4.07 -1.12,3.86 -1.39,3.48 -1.66,3.09 -1.84,2.65 -2.01,2.21 -2.07,1.75 -2.13,1.28 -2.08,0.81 -2.03,0.34 -1.87,-0.09 -1.71,-0.53 -1.45,-0.92 -1.18,-1.32 -0.83,-1.63 -0.48,-1.95 -0.07,-2.17 0.33,-2.40 0.79,-2.52 1.25,-2.64 1.72,-2.64 2.19,-2.65 2.65,-2.54 3.11,-2.43 3.53,-2.22 3.95,-2.01 4.31,-1.70 4.66,-1.39 3.69,-1.86 2.72,-2.33 3.76,-1.82 4.79,-1.32 5.58,-0.14 6.37,1.02 6.39,1.07 6.40,1.11 6.54,1.56 6.67,2.01 6.70,2.49 6.72,2.96 6.63,3.42 6.54,3.88 6.34,4.31 6.14,4.74 5.84,5.11 5.55,5.48 5.17,5.76 4.80,6.05 4.37,6.24 3.93,6.43 3.47,6.51 3.00,6.58 2.53,6.55 2.06,6.52 1.61,6.37 1.16,6.22 0.76,5.98 0.36,5.73 0.03,5.39 -0.29,5.05 -0.53,4.64 -0.77,4.24 -1.28,3.30 -1.79,2.36 -1.63,2.47 -1.46,2.57 -1.86,2.32 -2.25,2.06 -2.58,1.72 -2.90,1.37 -3.13,0.96 -3.36,0.55 -3.49,0.09 -3.62,-0.35 -3.63,-0.82 -3.65,-1.29 -3.55,-1.76 -3.45,-2.22 -3.24,-2.64 -3.03,-3.07 -2.73,-3.43 -2.43,-3.79 -2.05,-4.07 -1.67,-4.35 -1.23,-4.53 -0.80,-4.71 -0.33,-4.78 0.13,-4.85 0.60,-4.81 1.07,-4.77 1.52,-4.61 1.96,-4.46 3.01,-3.11 4.07,-1.77 4.85,-1.02 5.64,-0.28 6.42,0.71 7.21,1.72 7.82,2.73 8.43,3.75 9.19,5.52 9.95,7.29 10.09,7.91 10.23,8.53 10.17,9.17 10.10,9.80 9.84,10.38 9.58,10.96 9.14,11.43 8.71,11.89 8.15,12.19 7.59,12.50 6.96,12.60 6.33,12.71 5.70,12.61 5.07,12.51 4.51,12.22 3.94,11.92 3.50,11.46 3.06,11.01 2.79,10.43 2.52,9.85 2.44,9.22 2.37,8.59 2.50,7.96 2.64,7.34 2.96,6.79 3.29,6.25 3.77,5.83 4.25,5.41 4.84,5.17 5.43,4.93 6.07,4.90 6.70,4.86 7.32,5.02 7.93,5.19 8.46,5.54 8.99,5.90 9.38,6.40 9.77,6.91 9.98,7.51 10.18,8.11 10.19,8.75 10.19,9.38 9.99,9.99 9.79,10.59 9.41,11.10 9.03,11.61 8.50,11.97 7.98,12.34 7.37,12.51 6.75,12.68 6.12,12.65 5.48,12.62 4.89,12.39 4.30,12.16 3.81,11.75 3.32,11.34 2.99,10.80 2.66,10.26 2.66,10.26 2.66,10.26 1.51,8.03 0.36,5.80 -0.25,4.92 -0.87,4.05 -1.60,3.16 -2.33,2.27 -2.93,1.14 -3.54,0.01 -2.50,1.29 -1.46,2.57 -1.86,2.32 -2.25,2.06 -2.58,1.72 -2.90,1.37 -3.13,0.96 -3.36,0.55 -3.49,0.10 -3.62,-0.35 -3.63,-0.82 -3.65,-1.29 -3.55,-1.76 -3.45,-2.22 -3.24,-2.64 -3.03,-3.07 -2.73,-3.43 -2.43,-3.79 -2.05,-4.07 -1.67,-4.35 -1.23,-4.53 -0.80,-4.71 -0.33,-4.78 0.13,-4.85 0.60,-4.81 1.07,-4.77 1.52,-4.61 1.96,-4.46 2.09,-4.40 2.22,-4.34 3.14,-3.61 4.06,-2.88 4.67,-1.92 5.28,-0.96 5.84,0.07 6.40,1.11 6.54,1.56 6.67,2.01 6.70,2.49 6.72,2.96 6.63,3.42 6.54,3.88 6.34,4.31 6.14,4.74 5.84,5.11 5.55,5.48 5.17,5.76 4.80,6.05 4.37,6.24 3.93,6.43 3.47,6.51 3.00,6.58 2.53,6.55 2.06,6.52 1.61,6.37 1.16,6.23 0.76,5.98 0.36,5.73 0.03,5.39 -0.29,5.05 -0.53,4.64 -0.77,4.24 0.08,4.52 0.93,4.80 -0.09,4.33 -1.12,3.86 -1.39,3.48 -1.66,3.09 -1.83,2.65 -2.01,2.22 -2.07,1.75 -2.13,1.28 -2.08,0.81 -2.03,0.34 -1.87,-0.09 -1.71,-0.53 -1.45,-0.92 -1.18,-1.31 -0.83,-1.63 -0.48,-1.95 -0.07,-2.17 0.33,-2.40 0.79,-2.52 1.25,-2.63 1.72,-2.64 2.19,-2.65 2.65,-2.54 3.11,-2.43 3.53,-2.22 3.95,-2.01 4.31,-1.70 4.66,-1.39 4.92,-0.99 5.18,-0.59 5.80,0.34 6.42,1.27 5.45,2.04 4.48,2.80 5.23,1.88 5.98,0.95 7.15,0.50 8.32,0.06 7.28,0.63 6.23,1.21 5.79,2.55 5.36,3.89 4.16,3.48 2.95,3.07 1.93,2.76 0.91,2.45 -0.15,2.26 -1.23,2.07 -1.63,1.84 -2.03,1.61 -2.37,1.29 -2.70,0.98 -2.95,0.59 -3.20,0.20 -3.35,-0.23 -3.50,-0.67 -3.53,-1.13 -3.57,-1.59 -3.50,-2.04 -3.43,-2.50 -3.25,-2.93 -3.07,-3.35 -2.79,-3.72 -2.52,-4.09 -2.16,-4.39 -1.80,-4.68 -1.39,-4.88 -0.97,-5.08 -0.52,-5.17 -0.07,-5.27 0.38,-5.25 0.85,-5.23 1.29,-5.11 1.73,-4.98 1.97,-5.00 2.21,-5.01 3.39,-4.98 4.58,-4.94 5.69,-4.91 6.80,-4.88 7.86,-4.81 8.92,-4.74 10.09,-4.68 11.27,-4.62 12.49,-4.60 13.71,-4.59 14.86,-4.23 16.01,-3.87 16.57,-2.90 17.14,-1.93 17.22,-0.55 17.31,0.83 16.63,1.87 15.95,2.92 15.24,3.87 14.52,4.81 13.88,5.93 13.25,7.05 12.65,8.13 12.05,9.21 11.45,10.30 10.85,11.39 9.84,12.26 8.83,13.13 6.73,12.80 4.62,12.47 3.90,11.04 3.17,9.60 2.65,8.54 2.12,7.48 1.61,6.48 1.09,5.47 0.30,4.34 -0.49,3.21 -1.14,2.51 -1.79,1.82 -1.98,1.58 -2.17,1.34 -2.30,1.06 -2.43,0.78 -2.49,0.47 -2.55,0.17 -2.53,-0.13 -2.52,-0.43 -2.43,-0.73 -2.34,-1.03 -2.18,-1.29 -2.02,-1.56 -1.81,-1.78 -1.59,-2.00 -1.33,-2.16 -1.07,-2.32 -0.77,-2.41 -0.48,-2.51 -0.17,-2.53 0.13,-2.55 0.43,-2.50 0.74,-2.45 1.02,-2.32 1.30,-2.20 1.54,-2.01 1.79,-1.82 1.79,-1.82 L 1.79,-1.82 Z"></path></g><g transform="translate(164.48061342592587 99.84563078703707) rotate(0 -1.014178240740705 3.7832754629629335)" stroke="none"><path d="M1.63 1.31 C2.16 2.45, 1.7 7.43, 1.62 8.2 C1.53 8.97, 1.56 7.74, 1.12 5.93 C0.68 4.12, -1.08 -1.92, -1.01 -2.67 C-0.95 -3.43, 1.09 0.7, 1.53 1.41" stroke="none" stroke-width="0" fill="#e03131" fill-rule="evenodd"></path><path fill="#2f9e44" d="M 2.47,-0.04 Q 2.47,-0.04 2.53,0.69 2.60,1.43 2.74,2.58 2.89,3.72 2.99,4.94 3.10,6.17 3.23,7.27 3.36,8.38 3.32,8.13 3.29,7.88 3.36,8.26 3.44,8.64 3.42,9.03 3.41,9.41 3.30,9.78 3.19,10.16 3.00,10.49 2.80,10.82 2.53,11.10 2.26,11.38 1.94,11.59 1.61,11.79 1.24,11.91 0.88,12.04 0.49,12.07 0.10,12.10 -0.27,12.03 -0.65,11.97 -1.00,11.82 -1.36,11.66 -1.67,11.43 -1.98,11.20 -2.22,10.90 -2.46,10.60 -2.63,10.25 -2.79,9.90 -2.90,8.74 -3.00,7.59 -3.06,6.52 -3.11,5.45 -3.79,4.54 -4.47,3.64 -4.97,2.46 -5.48,1.28 -4.46,0.92 -3.44,0.56 -3.46,0.14 -3.48,-0.28 -3.39,-0.69 -3.31,-1.10 -3.13,-1.48 -2.95,-1.86 -2.68,-2.19 -2.42,-2.51 -2.08,-2.77 -1.74,-3.02 -1.36,-3.19 -0.97,-3.35 -0.55,-3.42 -0.14,-3.49 0.27,-3.45 0.69,-3.42 1.09,-3.29 1.49,-3.15 1.85,-2.93 2.20,-2.70 2.50,-2.40 2.79,-2.09 3.00,-1.73 3.21,-1.37 3.33,-0.96 3.44,-0.56 3.01,-1.45 2.57,-2.35 2.88,-1.88 3.19,-1.41 3.33,-0.86 3.48,-0.31 3.43,0.24 3.39,0.81 3.18,1.33 2.96,1.85 2.58,2.27 2.21,2.70 1.72,2.98 1.23,3.26 0.68,3.38 0.12,3.49 -0.43,3.42 -0.99,3.35 -1.50,3.10 -2.01,2.85 -2.41,2.46 -2.81,2.06 -3.07,1.56 -3.33,1.05 -3.41,0.49 -3.49,-0.06 -3.39,-0.61 -3.29,-1.17 -3.01,-1.66 -2.74,-2.16 -2.32,-2.54 -1.90,-2.92 -1.39,-3.15 -0.87,-3.38 -0.31,-3.43 0.25,-3.48 0.80,-3.35 1.35,-3.22 1.82,-2.92 2.30,-2.62 2.66,-2.18 3.02,-1.74 3.22,-1.21 3.42,-0.69 3.44,-0.12 3.46,0.43 3.30,0.98 3.14,1.52 2.81,1.98 2.49,2.44 2.03,2.78 1.58,3.11 1.04,3.28 0.50,3.45 -0.06,3.44 -0.62,3.43 -1.15,3.24 -1.69,3.05 -2.57,1.80 -3.44,0.56 -3.46,0.14 -3.48,-0.27 -3.39,-0.69 -3.31,-1.10 -3.13,-1.48 -2.95,-1.86 -2.68,-2.19 -2.42,-2.51 -2.08,-2.77 -1.74,-3.02 -1.36,-3.19 -0.97,-3.35 -0.55,-3.42 -0.14,-3.49 0.27,-3.45 0.69,-3.42 1.09,-3.29 1.49,-3.15 1.85,-2.93 2.20,-2.70 2.50,-2.40 2.79,-2.10 3.00,-1.73 3.21,-1.37 3.33,-0.96 3.44,-0.56 2.44,-0.80 1.43,-1.04 1.83,-0.01 2.23,1.01 2.74,2.12 3.26,3.24 3.45,4.45 3.65,5.66 3.47,6.77 3.29,7.88 3.36,8.26 3.44,8.64 3.42,9.03 3.41,9.41 3.30,9.78 3.19,10.16 3.00,10.49 2.80,10.82 2.53,11.10 2.26,11.38 1.94,11.59 1.61,11.79 1.24,11.91 0.88,12.04 0.49,12.07 0.10,12.10 -0.27,12.03 -0.65,11.97 -1.00,11.82 -1.36,11.66 -1.67,11.43 -1.98,11.20 -2.22,10.90 -2.46,10.60 -2.63,10.25 -2.79,9.90 -2.57,10.16 -2.36,10.42 -2.66,9.36 -2.97,8.30 -2.94,7.23 -2.91,6.17 -2.80,4.96 -2.70,3.75 -2.62,2.64 -2.54,1.53 -2.51,0.79 -2.47,0.04 -2.44,-0.25 -2.41,-0.54 -2.31,-0.82 -2.21,-1.10 -2.04,-1.35 -1.88,-1.60 -1.66,-1.80 -1.44,-2.01 -1.18,-2.15 -0.91,-2.29 -0.63,-2.37 -0.34,-2.45 -0.04,-2.45 0.25,-2.46 0.54,-2.39 0.83,-2.32 1.10,-2.19 1.36,-2.06 1.59,-1.86 1.82,-1.67 1.99,-1.43 2.16,-1.18 2.28,-0.91 2.39,-0.63 2.43,-0.34 2.47,-0.04 2.47,-0.04 L 2.47,-0.04 Z"></path></g><g transform="translate(189.8046874999999 83.92549189814815) rotate(0 1.8106192129629903 2.395833333333343)" stroke="none"><path d="M0.94 0.53 C1.52 1.22, 3.05 4, 3 3.9 C2.94 3.8, 1.29 0.38, 0.62 -0.07" stroke="none" stroke-width="0" fill="#e03131" fill-rule="evenodd"></path><path fill="#2f9e44" d="M 2.03,-1.46 Q 2.03,-1.46 2.52,-0.85 3.02,-0.25 3.75,0.52 4.47,1.30 5.16,2.04 5.84,2.77 6.05,3.07 6.25,3.37 6.38,3.71 6.51,4.05 6.55,4.41 6.59,4.77 6.55,5.13 6.50,5.49 6.37,5.82 6.24,6.16 6.04,6.46 5.83,6.76 5.56,6.99 5.29,7.23 4.97,7.40 4.65,7.57 4.30,7.65 3.94,7.74 3.58,7.74 3.22,7.74 2.87,7.65 2.52,7.56 2.20,7.39 1.88,7.22 1.61,6.98 1.34,6.74 0.55,6.00 -0.22,5.27 -1.43,3.54 -2.64,1.81 -2.86,1.34 -3.08,0.87 -3.14,0.36 -3.20,-0.15 -3.09,-0.66 -2.98,-1.16 -2.72,-1.61 -2.45,-2.06 -2.06,-2.40 -1.67,-2.74 -1.19,-2.93 -0.70,-3.13 -0.19,-3.16 0.32,-3.19 0.82,-3.05 1.33,-2.92 1.76,-2.63 2.19,-2.34 2.51,-1.93 2.82,-1.52 2.99,-1.02 3.16,-0.53 3.16,-0.01 3.17,0.50 3.00,0.99 2.84,1.48 2.53,1.90 2.22,2.31 1.79,2.61 1.36,2.90 0.86,3.04 0.36,3.18 -0.15,3.16 -0.67,3.13 -1.15,2.94 -1.63,2.76 -2.03,2.42 -2.43,2.09 -2.70,1.64 -2.97,1.20 -3.08,0.69 -3.20,0.19 -3.15,-0.32 -3.09,-0.84 -2.88,-1.31 -2.66,-1.78 -2.31,-2.16 -1.95,-2.54 -1.50,-2.78 -1.04,-3.03 -0.53,-3.12 -0.01,-3.20 0.49,-3.12 1.00,-3.04 1.46,-2.80 1.92,-2.56 2.28,-2.19 2.64,-1.81 2.64,-1.81 2.64,-1.81 3.51,-0.49 4.38,0.83 5.11,1.80 5.84,2.77 6.05,3.07 6.25,3.37 6.38,3.71 6.51,4.05 6.55,4.41 6.59,4.77 6.55,5.13 6.50,5.48 6.37,5.82 6.24,6.16 6.04,6.46 5.83,6.76 5.56,6.99 5.29,7.23 4.97,7.40 4.65,7.57 4.30,7.65 3.94,7.74 3.58,7.74 3.22,7.74 2.87,7.65 2.52,7.56 2.20,7.39 1.88,7.22 1.61,6.98 1.34,6.74 1.28,6.67 1.23,6.60 0.61,5.63 -0.00,4.66 -0.60,3.72 -1.19,2.79 -1.61,2.12 -2.03,1.46 -2.17,1.20 -2.32,0.93 -2.40,0.64 -2.48,0.35 -2.48,0.05 -2.49,-0.25 -2.42,-0.54 -2.36,-0.83 -2.22,-1.11 -2.09,-1.38 -1.89,-1.61 -1.69,-1.84 -1.45,-2.01 -1.20,-2.19 -0.92,-2.30 -0.64,-2.41 -0.35,-2.46 -0.05,-2.50 0.24,-2.47 0.54,-2.44 0.83,-2.34 1.11,-2.24 1.37,-2.07 1.62,-1.90 1.82,-1.68 2.03,-1.46 2.03,-1.46 L 2.03,-1.46 Z"></path></g><g transform="translate(72.08478009259261 102.15465856481484) rotate(0 -1.0857928240740762 5.840567129629619)" stroke="none"><path fill="#2f9e44" d="M 2.57,0.44 Q 2.57,0.44 2.42,1.47 2.28,2.50 2.13,3.68 1.99,4.86 1.81,5.96 1.63,7.07 1.22,9.80 0.82,12.54 0.60,12.99 0.38,13.45 0.03,13.81 -0.31,14.17 -0.75,14.41 -1.20,14.64 -1.70,14.71 -2.20,14.79 -2.69,14.70 -3.19,14.62 -3.63,14.38 -4.08,14.14 -4.42,13.77 -4.76,13.40 -4.97,12.94 -5.18,12.48 -5.22,11.98 -5.27,11.48 -5.16,10.98 -5.05,10.49 -4.78,10.06 -4.52,9.64 -4.13,9.31 -3.74,8.99 -3.27,8.81 -2.80,8.63 -2.30,8.61 -1.80,8.58 -1.31,8.72 -0.83,8.86 -0.42,9.15 -0.00,9.44 0.29,9.84 0.59,10.25 0.75,10.73 0.90,11.20 0.90,11.71 0.89,12.21 0.73,12.69 0.56,13.16 0.25,13.56 -0.05,13.96 -0.47,14.24 -0.89,14.52 -1.38,14.65 -1.86,14.78 -2.36,14.74 -2.87,14.71 -3.33,14.52 -3.80,14.33 -4.18,14.00 -4.56,13.67 -4.82,13.23 -5.07,12.80 -5.17,12.31 -5.28,11.81 -5.22,11.31 -5.16,10.81 -5.16,10.81 -5.16,10.81 -4.93,9.41 -4.70,8.01 -4.44,6.92 -4.18,5.83 -3.86,4.79 -3.54,3.75 -3.26,2.66 -2.99,1.58 -2.78,0.56 -2.57,-0.44 -2.48,-0.74 -2.39,-1.05 -2.23,-1.32 -2.07,-1.59 -1.85,-1.81 -1.63,-2.04 -1.36,-2.20 -1.09,-2.37 -0.79,-2.47 -0.49,-2.56 -0.18,-2.59 0.13,-2.61 0.44,-2.55 0.75,-2.50 1.04,-2.37 1.33,-2.25 1.58,-2.05 1.83,-1.86 2.02,-1.62 2.22,-1.37 2.35,-1.08 2.48,-0.80 2.54,-0.49 2.60,-0.18 2.59,0.13 2.57,0.44 2.57,0.44 L 2.57,0.44 Z"></path></g><g transform="translate(35.29947916666663 96.49059606481484) rotate(0 -1.1537905092592382 3.0201099537037237)" stroke="none"><path fill="#2f9e44" d="M 2.27,1.04 Q 2.27,1.04 1.82,2.08 1.38,3.13 0.79,5.03 0.20,6.93 -0.00,7.31 -0.21,7.68 -0.53,7.97 -0.85,8.27 -1.24,8.44 -1.64,8.61 -2.06,8.65 -2.49,8.69 -2.91,8.59 -3.33,8.49 -3.70,8.26 -4.06,8.03 -4.33,7.70 -4.61,7.37 -4.76,6.96 -4.91,6.56 -4.93,6.13 -4.94,5.70 -4.82,5.29 -4.70,4.87 -4.45,4.52 -4.20,4.17 -3.86,3.92 -3.51,3.66 -3.10,3.53 -2.69,3.40 -2.26,3.41 -1.83,3.42 -1.42,3.56 -1.01,3.70 -0.68,3.97 -0.34,4.24 -0.10,4.60 0.12,4.96 0.23,5.38 0.34,5.79 0.31,6.22 0.28,6.65 0.11,7.05 -0.05,7.45 -0.33,7.77 -0.61,8.09 -0.99,8.31 -1.36,8.53 -1.78,8.61 -2.21,8.70 -2.63,8.64 -3.06,8.59 -3.45,8.40 -3.84,8.21 -4.14,7.91 -4.45,7.61 -4.65,7.22 -4.84,6.84 -4.90,6.41 -4.97,5.99 -4.89,5.56 -4.81,5.14 -4.81,5.14 -4.81,5.14 -4.04,3.07 -3.27,1.00 -2.77,-0.01 -2.27,-1.04 -2.11,-1.29 -1.96,-1.55 -1.74,-1.76 -1.53,-1.97 -1.27,-2.13 -1.01,-2.28 -0.72,-2.37 -0.43,-2.46 -0.13,-2.48 0.16,-2.49 0.46,-2.44 0.75,-2.38 1.03,-2.25 1.30,-2.13 1.54,-1.94 1.78,-1.75 1.96,-1.52 2.14,-1.28 2.27,-1.00 2.39,-0.73 2.44,-0.43 2.49,-0.13 2.47,0.16 2.45,0.46 2.36,0.75 2.27,1.04 2.27,1.04 L 2.27,1.04 Z"></path></g><g transform="translate(11.966145833333371 87.05772569444446) rotate(0 -0.5649594907407618 3.1618923611111143)" stroke="none"><path fill="#2f9e44" d="M 2.45,0 Q 2.45,0 2.50,0.67 2.55,1.34 2.64,2.57 2.72,3.80 2.00,5.77 1.27,7.74 0.98,8.08 0.69,8.43 0.30,8.67 -0.07,8.90 -0.51,9.00 -0.95,9.10 -1.40,9.06 -1.85,9.01 -2.26,8.83 -2.67,8.64 -3.00,8.33 -3.33,8.03 -3.55,7.63 -3.76,7.23 -3.84,6.79 -3.92,6.34 -3.85,5.89 -3.78,5.45 -3.57,5.05 -3.36,4.65 -3.04,4.33 -2.71,4.02 -2.30,3.83 -1.89,3.64 -1.44,3.58 -1.00,3.53 -0.55,3.62 -0.11,3.72 0.27,3.95 0.66,4.18 0.95,4.52 1.25,4.86 1.42,5.28 1.59,5.70 1.61,6.15 1.64,6.60 1.52,7.03 1.41,7.47 1.16,7.85 0.91,8.22 0.55,8.50 0.19,8.77 -0.22,8.92 -0.65,9.07 -1.10,9.07 -1.55,9.08 -1.98,8.94 -2.41,8.80 -2.77,8.52 -3.14,8.25 -3.39,7.88 -3.65,7.51 -3.77,7.08 -3.90,6.64 -3.88,6.19 -3.86,5.74 -3.69,5.32 -3.53,4.90 -3.53,4.90 -3.53,4.90 -3.04,3.12 -2.55,1.34 -2.50,0.67 -2.45,0 -2.41,-0.29 -2.38,-0.58 -2.27,-0.86 -2.17,-1.14 -2.00,-1.38 -1.83,-1.62 -1.61,-1.82 -1.39,-2.01 -1.13,-2.15 -0.86,-2.29 -0.58,-2.36 -0.29,-2.43 0.00,-2.43 0.29,-2.43 0.58,-2.36 0.87,-2.29 1.13,-2.15 1.39,-2.01 1.61,-1.82 1.83,-1.62 2.00,-1.38 2.17,-1.13 2.27,-0.86 2.38,-0.58 2.41,-0.29 2.45,0.00 2.45,0.00 L 2.45,0 Z"></path></g></svg>